<?xml version="1.0" standalone="no"?>
<!DOCTYPE svg PUBLIC "-//W3C//DTD SVG 20010904//EN"
 "http://www.w3.org/TR/2001/REC-SVG-20010904/DTD/svg10.dtd">
<svg version="1.0" xmlns="http://www.w3.org/2000/svg"
 width="2000.000000pt" height="2000.000000pt" viewBox="0 0 2000.000000 2000.000000"
 preserveAspectRatio="xMidYMid meet">
<metadata>
Created by potrace 1.11, written by Peter Selinger 2001-2013
</metadata>
<g transform="translate(0.000000,2000.000000) scale(0.100000,-0.100000)"
fill="#000000" stroke="none">
<path d="M8860 19503 c-385 -25 -632 -53 -875 -98 -812 -150 -1500 -438 -2265
-950 -1036 -692 -1753 -1539 -2446 -2890 -369 -720 -562 -1247 -693 -1901
-106 -521 -146 -961 -146 -1594 0 -451 8 -623 46 -1000 147 -1473 611 -3126
1319 -4695 118 -261 323 -676 330 -668 4 5 24 60 44 123 121 373 283 694 424
843 65 67 117 101 184 117 197 50 398 -230 559 -778 21 -75 41 -137 43 -139 2
-2 27 44 55 102 155 325 380 554 704 717 121 60 239 109 553 227 133 50 291
113 353 141 427 193 728 445 973 818 42 64 103 152 134 196 108 147 153 251
203 474 16 70 36 143 44 162 40 93 124 169 416 376 255 181 362 297 419 457
20 57 26 97 30 194 l4 122 -28 5 c-108 21 -248 60 -316 90 -389 168 -703 540
-864 1020 -81 243 -114 448 -114 708 0 697 314 1272 893 1630 176 109 310 152
456 146 86 -3 103 -7 161 -38 92 -49 240 -199 304 -309 110 -188 180 -381 341
-946 118 -412 215 -710 300 -920 154 -382 334 -707 551 -998 91 -121 233 -291
239 -285 2 2 -23 127 -56 279 -129 611 -162 821 -162 1049 -1 128 3 171 22
248 13 52 27 90 31 85 11 -12 34 -123 80 -393 67 -385 109 -532 207 -721 128
-248 329 -449 624 -627 89 -54 314 -165 408 -202 l53 -21 -6 33 c-3 18 -15
103 -25 188 -90 712 -32 1369 170 1925 22 61 44 116 49 124 7 13 55 5 312 -48
1081 -223 2636 -543 2928 -602 190 -39 354 -73 364 -76 18 -5 19 -13 12 -137
-19 -384 -101 -673 -259 -909 -71 -106 -256 -301 -363 -383 -41 -31 -74 -60
-74 -64 0 -3 25 -34 56 -68 l56 -62 40 31 c54 43 212 219 291 325 90 120 180
273 231 396 81 192 162 470 196 671 l12 67 48 0 c45 0 49 2 54 28 17 80 136
775 134 776 -3 3 -398 83 -2078 426 -1399 286 -1563 320 -1567 323 -1 2 22 34
53 73 306 385 705 716 1236 1027 81 48 303 170 492 273 290 156 356 188 410
197 82 14 167 -1 255 -44 80 -40 201 -154 267 -252 144 -213 260 -547 327
-937 l24 -135 6 205 c3 113 13 291 22 395 19 212 15 326 -15 431 -10 38 -17
70 -16 72 2 1 36 -32 76 -75 199 -213 470 -722 656 -1233 l49 -135 9 255 c9
288 -5 845 -29 1085 -29 297 -75 549 -145 794 -183 637 -451 1052 -1261 1952
-609 678 -1003 1052 -1520 1441 -686 518 -1462 916 -2259 1159 -594 182 -1234
293 -1890 329 -165 9 -753 11 -870 3z"/>
</g>
</svg>
